<svg id="Layer_3" height="512" viewBox="0 0 48 48" width="512" xmlns="http://www.w3.org/2000/svg" xmlns:xlink="http://www.w3.org/1999/xlink" data-name="Layer 3"><linearGradient id="linear-gradient" gradientUnits="userSpaceOnUse" x1="18.793" x2="20.207" y1="25.793" y2="27.207"><stop offset="0" stop-color="#7f7f99"/><stop offset="1" stop-color="#515072"/></linearGradient><linearGradient id="linear-gradient-2" x1="20.793" x2="22.207" xlink:href="#linear-gradient" y1="27.793" y2="29.207"/><linearGradient id="linear-gradient-3" x1="16.793" x2="18.207" xlink:href="#linear-gradient" y1="23.793" y2="25.207"/><linearGradient id="linear-gradient-4" x1="13.631" x2="24.37" xlink:href="#linear-gradient" y1="37.391" y2="48.13"/><linearGradient id="linear-gradient-5" gradientTransform="matrix(.707 .707 -.707 .707 15.751 -27.027)" gradientUnits="userSpaceOnUse" x1="38.5" x2="42.5" y1="3.5" y2="7.5"><stop offset="0" stop-color="#e4e9f4"/><stop offset="1" stop-color="#bccbe2"/></linearGradient><linearGradient id="linear-gradient-6" gradientTransform="matrix(.707 .707 -.707 .707 23.414 -8.527)" x1="19" x2="25" xlink:href="#linear-gradient-5" y1="21" y2="27"/><linearGradient id="linear-gradient-7" gradientTransform="matrix(.707 .707 -.707 .707 19.686 -17.527)" x1="27" x2="35" xlink:href="#linear-gradient" y1="11" y2="19"/><linearGradient id="linear-gradient-8" x1="20.359" x2="37.38" xlink:href="#linear-gradient-5" y1="24.357" y2="41.378"/><linearGradient id="linear-gradient-9" x1="6.586" x2="15.414" xlink:href="#linear-gradient-5" y1="28.586" y2="37.414"/><path d="m19 28a1 1 0 0 1 -.707-1.707l1-1a1 1 0 0 1 1.414 1.414l-1 1a1 1 0 0 1 -.707.293z" fill="url(#linear-gradient)"/><path d="m21 30a1 1 0 0 1 -.707-1.707l1-1a1 1 0 0 1 1.414 1.414l-1 1a1 1 0 0 1 -.707.293z" fill="url(#linear-gradient-2)"/><path d="m17 26a1 1 0 0 1 -.707-1.707l1-1a1 1 0 0 1 1.414 1.414l-1 1a1 1 0 0 1 -.707.293z" fill="url(#linear-gradient-3)"/><path d="m31 41a6.009 6.009 0 0 1 6 6h-30a6 6 0 0 1 6-6z" fill="url(#linear-gradient-4)"/><path d="m36.964 2.672h7.071v5.657h-7.071z" fill="url(#linear-gradient-5)" transform="matrix(.707 -.707 .707 .707 7.973 30.249)"/><path d="m19.172 19.757h5.657v8.485h-5.657z" fill="url(#linear-gradient-6)" transform="matrix(.707 -.707 .707 .707 -10.527 22.586)"/><path d="m19.686 9.343h22.627v11.314h-22.627z" fill="url(#linear-gradient-7)" transform="matrix(.707 -.707 .707 .707 -1.527 26.314)"/><path d="m36.64 17.36a17.019 17.019 0 0 0 -8.7-7.3l-3.22 3.22a13 13 0 1 1 -12.09 21.72h.37v-1h-6v1h.58a17 17 0 0 0 29.06-17.64z" fill="url(#linear-gradient-8)"/><rect fill="url(#linear-gradient-9)" height="4" rx="2" width="16" x="3" y="31"/></svg>